<svg width="358" height="125" viewBox="0 0 358 125" fill="none" xmlns="http://www.w3.org/2000/svg">
<path d="M338.454 94.898C334.612 94.898 331.039 95.7436 328.019 97.1802C329.564 95.0806 330.447 92.6662 330.447 90.0981C330.447 81.9925 321.698 75.4221 310.904 75.4221C303.735 75.4221 297.484 78.3313 294.084 82.6532C289.554 67.3765 271.428 55.9461 249.72 55.9461C240.075 55.9461 231.15 58.2164 223.792 62.0601C224.083 60.0518 224.243 58.0122 224.243 55.9461C224.243 25.0494 190.89 0 149.744 0C123.643 0 100.694 10.0875 87.389 25.3473C84.3116 20.2783 77.5169 16.7468 69.6153 16.7468C60.4981 16.7468 52.8589 21.4435 50.6996 27.7857C42.6253 18.2747 28.4889 11.9469 12.3562 11.9469C-12.1194 11.9469 -32.0205 26.4764 -33.0282 44.6695C-36.4192 42.5482 -40.7762 41.2677 -45.5331 41.2677C-56.3266 41.2677 -65.0759 47.8382 -65.0759 55.9461C-65.0759 56.1912 -65.0439 56.4266 -65.0279 56.6692C-68.035 56.1984 -71.1508 55.9461 -74.3434 55.9461C-99.462 55.9461 -119.824 71.2372 -119.824 90.1005C-119.824 92.0104 -119.565 93.8698 -119.162 95.6932C-121.139 95.1863 -123.253 94.9004 -125.457 94.9004C-136.251 94.9004 -145 101.471 -145 109.576C-145 117.682 -136.251 124.252 -125.457 124.252H338.457C349.251 124.252 358 117.682 358 109.576C358 101.471 349.247 94.898 338.454 94.898Z" fill="#1F5917"/>
</svg>
